<svg width="14" height="17" viewBox="0 0 14 17" fill="none" xmlns="http://www.w3.org/2000/svg">
<path d="M13 7.16663C13 11.8333 7 15.8333 7 15.8333C7 15.8333 1 11.8333 1 7.16663C1 5.57533 1.63214 4.0492 2.75736 2.92399C3.88258 1.79877 5.4087 1.16663 7 1.16663C8.5913 1.16663 10.1174 1.79877 11.2426 2.92399C12.3679 4.0492 13 5.57533 13 7.16663Z" stroke="#5C6970" stroke-width="1.33333" stroke-linecap="round" stroke-linejoin="round"/>
<path d="M7 9.16663C8.10457 9.16663 9 8.2712 9 7.16663C9 6.06206 8.10457 5.16663 7 5.16663C5.89543 5.16663 5 6.06206 5 7.16663C5 8.2712 5.89543 9.16663 7 9.16663Z" stroke="#5C6970" stroke-width="1.33333" stroke-linecap="round" stroke-linejoin="round"/>
</svg>
