<svg width="16" height="16" viewBox="0 0 16 16" fill="none" xmlns="http://www.w3.org/2000/svg">
<path d="M4.66668 14.6666H2.66668C2.31305 14.6666 1.97392 14.5261 1.72387 14.2761C1.47382 14.026 1.33334 13.6869 1.33334 13.3333V8.66659C1.33334 8.31296 1.47382 7.97383 1.72387 7.72378C1.97392 7.47373 2.31305 7.33325 2.66668 7.33325H4.66668M9.33334 5.99992V3.33325C9.33334 2.80282 9.12263 2.29411 8.74756 1.91904C8.37248 1.54397 7.86378 1.33325 7.33334 1.33325L4.66668 7.33325V14.6666H12.1867C12.5082 14.6702 12.8203 14.5575 13.0653 14.3493C13.3103 14.141 13.4718 13.8512 13.52 13.5333L14.44 7.53325C14.469 7.34216 14.4561 7.14704 14.4022 6.96142C14.3483 6.7758 14.2547 6.60412 14.1279 6.45826C14.0011 6.31241 13.8441 6.19587 13.6677 6.11673C13.4914 6.03759 13.2999 5.99773 13.1067 5.99992H9.33334Z" stroke="#5C6970" stroke-width="1.33333" stroke-linecap="round" stroke-linejoin="round"/>
</svg>
