<svg width="50" height="50" viewBox="0 0 50 50" fill="none" xmlns="http://www.w3.org/2000/svg">
<path d="M21.4375 8.04185L3.79165 37.5002C3.42783 38.1302 3.23533 38.8446 3.23329 39.5721C3.23126 40.2996 3.41975 41.015 3.78004 41.6471C4.14032 42.2792 4.65983 42.8059 5.28687 43.1749C5.91392 43.5438 6.62665 43.7422 7.35415 43.7502H42.6458C43.3733 43.7422 44.086 43.5438 44.7131 43.1749C45.3401 42.8059 45.8596 42.2792 46.2199 41.6471C46.5802 41.015 46.7687 40.2996 46.7667 39.5721C46.7646 38.8446 46.5721 38.1302 46.2083 37.5002L28.5625 8.04185C28.1911 7.42957 27.6682 6.92335 27.0441 6.57202C26.4201 6.2207 25.7161 6.03613 25 6.03613C24.2839 6.03613 23.5798 6.2207 22.9558 6.57202C22.3318 6.92335 21.8089 7.42957 21.4375 8.04185V8.04185Z" stroke="#5C6970" stroke-width="4.16667" stroke-linecap="round" stroke-linejoin="round"/>
<path d="M25 18.75L25 29.1667" stroke="#5C6970" stroke-width="4.16667" stroke-linecap="round"/>
<path d="M25 35.4165L25 37.4998" stroke="#5C6970" stroke-width="4.16667" stroke-linecap="round"/>
</svg>
